<svg xmlns="http://www.w3.org/2000/svg" xmlns:xlink="http://www.w3.org/1999/xlink" width="200" zoomAndPan="magnify" viewBox="0 0 150 74.999997" height="100" preserveAspectRatio="xMidYMid meet" version="1.2"><defs><clipPath id="31951dd090"><path d="M 10.722656 15 L 59 15 L 59 73.441406 L 10.722656 73.441406 Z M 10.722656 15 "/></clipPath><clipPath id="3cefea2291"><path d="M 16 23 L 69.972656 23 L 69.972656 71 L 16 71 Z M 16 23 "/></clipPath><clipPath id="f94c6efcc0"><path d="M 24 1.441406 L 64 1.441406 L 64 41 L 24 41 Z M 24 1.441406 "/></clipPath><clipPath id="fe6b67332c"><rect x="0" width="63" y="0" height="56"/></clipPath><clipPath id="eccd770586"><rect x="0" width="67" y="0" height="13"/></clipPath></defs><g id="243f2b20a3"><g clip-rule="nonzero" clip-path="url(#31951dd090)"><path style=" stroke:none;fill-rule:nonzero;fill:#80cc28;fill-opacity:1;" d="M 42.691406 71.519531 C 27.761719 71.519531 15.65625 59.425781 15.65625 44.503906 C 15.65625 29.582031 27.761719 17.488281 42.691406 17.488281 C 48.699219 17.488281 54.246094 19.445312 58.734375 22.757812 C 53.640625 18.292969 46.964844 15.582031 39.65625 15.582031 C 23.671875 15.582031 10.71875 28.53125 10.71875 44.503906 C 10.71875 60.476562 23.671875 73.421875 39.65625 73.421875 C 46.964844 73.421875 53.640625 70.714844 58.734375 66.25 C 54.246094 69.5625 48.699219 71.519531 42.691406 71.519531 "/></g><g clip-rule="nonzero" clip-path="url(#3cefea2291)"><path style=" stroke:none;fill-rule:nonzero;fill:#3871c1;fill-opacity:1;" d="M 67.445312 46.957031 C 64.558594 60.183594 51.488281 68.5625 38.253906 65.675781 C 25.019531 62.785156 16.632812 49.722656 19.523438 36.496094 C 20.683594 31.175781 23.496094 26.640625 27.300781 23.308594 C 22.355469 26.953125 18.660156 32.34375 17.246094 38.816406 C 14.152344 52.976562 23.128906 66.960938 37.296875 70.050781 C 51.464844 73.144531 65.457031 64.171875 68.550781 50.011719 C 69.964844 43.539062 68.855469 37.101562 65.878906 31.726562 C 67.945312 36.339844 68.609375 41.636719 67.445312 46.957031 "/></g><g clip-rule="nonzero" clip-path="url(#f94c6efcc0)"><path style=" stroke:none;fill-rule:nonzero;fill:#80cc28;fill-opacity:1;" d="M 63.074219 24.0625 L 63.070312 23.867188 C 63.066406 23.605469 63.058594 23.339844 63.054688 23.078125 C 63.039062 22.8125 63.015625 22.546875 63 22.28125 C 62.988281 22.148438 62.980469 22.015625 62.96875 21.882812 C 62.953125 21.746094 62.9375 21.613281 62.921875 21.480469 C 62.886719 21.214844 62.855469 20.945312 62.816406 20.675781 C 62.769531 20.410156 62.722656 20.140625 62.675781 19.871094 L 62.640625 19.667969 C 62.628906 19.601562 62.609375 19.535156 62.597656 19.46875 C 62.566406 19.332031 62.535156 19.199219 62.503906 19.0625 C 62.476562 18.929688 62.445312 18.792969 62.414062 18.660156 L 62.390625 18.558594 L 62.363281 18.460938 L 62.308594 18.257812 C 62.234375 17.992188 62.160156 17.722656 62.082031 17.453125 C 61.996094 17.191406 61.90625 16.925781 61.816406 16.65625 L 61.75 16.457031 C 61.730469 16.390625 61.703125 16.324219 61.675781 16.261719 C 61.625 16.128906 61.574219 15.996094 61.523438 15.867188 C 61.472656 15.734375 61.421875 15.601562 61.371094 15.472656 C 61.320312 15.339844 61.257812 15.210938 61.203125 15.082031 C 61.144531 14.953125 61.089844 14.824219 61.03125 14.691406 C 60.972656 14.5625 60.917969 14.429688 60.851562 14.304688 C 60.726562 14.050781 60.597656 13.796875 60.46875 13.542969 C 59.933594 12.535156 59.324219 11.558594 58.648438 10.628906 C 57.964844 9.703125 57.207031 8.832031 56.398438 8.015625 L 55.777344 7.414062 L 55.132812 6.84375 L 54.96875 6.703125 L 54.800781 6.570312 L 54.46875 6.300781 L 54.132812 6.03125 L 53.4375 5.53125 L 53.265625 5.40625 C 53.203125 5.367188 53.144531 5.328125 53.085938 5.289062 C 52.847656 5.132812 52.609375 4.976562 52.371094 4.824219 C 51.882812 4.535156 51.402344 4.238281 50.894531 3.992188 C 50.644531 3.863281 50.398438 3.726562 50.144531 3.617188 C 49.886719 3.5 49.636719 3.382812 49.382812 3.269531 C 49.121094 3.167969 48.863281 3.0625 48.609375 2.960938 L 48.414062 2.882812 C 48.351562 2.859375 48.285156 2.839844 48.222656 2.816406 C 48.089844 2.769531 47.960938 2.726562 47.832031 2.683594 C 47.3125 2.492188 46.785156 2.359375 46.265625 2.207031 C 46.003906 2.144531 45.742188 2.082031 45.480469 2.023438 C 45.351562 1.992188 45.21875 1.957031 45.089844 1.933594 C 44.957031 1.910156 44.828125 1.886719 44.695312 1.863281 C 44.433594 1.816406 44.175781 1.765625 43.914062 1.726562 C 43.785156 1.707031 43.65625 1.691406 43.523438 1.671875 C 43.394531 1.65625 43.265625 1.636719 43.136719 1.625 C 42.617188 1.566406 42.105469 1.523438 41.59375 1.503906 C 40.574219 1.457031 39.578125 1.484375 38.613281 1.574219 C 36.6875 1.746094 34.898438 2.171875 33.316406 2.730469 C 32.523438 3.011719 31.785156 3.324219 31.097656 3.652344 C 30.410156 3.984375 29.777344 4.335938 29.199219 4.6875 C 28.617188 5.039062 28.097656 5.402344 27.621094 5.746094 C 27.15625 6.097656 26.730469 6.429688 26.367188 6.746094 C 25.628906 7.378906 25.09375 7.917969 24.738281 8.292969 C 24.558594 8.480469 24.425781 8.632812 24.335938 8.730469 C 24.246094 8.828125 24.199219 8.878906 24.199219 8.878906 C 24.199219 8.878906 24.25 8.832031 24.34375 8.734375 C 24.441406 8.644531 24.578125 8.5 24.765625 8.324219 C 25.140625 7.96875 25.703125 7.457031 26.464844 6.867188 C 26.84375 6.570312 27.28125 6.265625 27.761719 5.941406 C 28.246094 5.628906 28.777344 5.296875 29.367188 4.980469 C 29.953125 4.664062 30.59375 4.351562 31.28125 4.0625 C 31.972656 3.773438 32.710938 3.507812 33.492188 3.273438 C 35.058594 2.808594 36.808594 2.492188 38.671875 2.417969 C 39.601562 2.382812 40.554688 2.40625 41.523438 2.5 C 42.011719 2.542969 42.496094 2.609375 42.988281 2.691406 C 43.109375 2.710938 43.230469 2.734375 43.355469 2.757812 C 43.476562 2.78125 43.597656 2.804688 43.722656 2.828125 C 43.96875 2.875 44.210938 2.9375 44.457031 2.996094 C 44.578125 3.023438 44.703125 3.050781 44.824219 3.082031 C 44.949219 3.109375 45.070312 3.148438 45.191406 3.183594 C 45.433594 3.253906 45.679688 3.324219 45.925781 3.394531 C 46.40625 3.566406 46.898438 3.71875 47.371094 3.921875 C 47.492188 3.96875 47.613281 4.015625 47.734375 4.0625 C 47.792969 4.089844 47.851562 4.109375 47.914062 4.136719 L 48.089844 4.21875 C 48.324219 4.328125 48.5625 4.4375 48.796875 4.546875 C 49.03125 4.664062 49.261719 4.785156 49.492188 4.90625 C 49.726562 5.023438 49.949219 5.160156 50.175781 5.292969 C 50.636719 5.550781 51.070312 5.847656 51.507812 6.136719 C 51.722656 6.292969 51.9375 6.449219 52.148438 6.605469 C 52.203125 6.640625 52.257812 6.679688 52.308594 6.722656 L 52.464844 6.84375 L 53.082031 7.34375 L 53.378906 7.605469 L 53.675781 7.871094 L 53.824219 8 L 53.964844 8.140625 L 54.53125 8.695312 L 55.074219 9.277344 C 55.777344 10.066406 56.429688 10.898438 57.007812 11.773438 C 57.582031 12.652344 58.085938 13.566406 58.523438 14.503906 C 58.628906 14.738281 58.730469 14.972656 58.832031 15.210938 C 58.886719 15.324219 58.929688 15.449219 58.976562 15.566406 C 59.023438 15.6875 59.066406 15.804688 59.113281 15.925781 C 59.15625 16.042969 59.207031 16.164062 59.246094 16.28125 C 59.285156 16.402344 59.324219 16.523438 59.363281 16.644531 C 59.40625 16.765625 59.445312 16.886719 59.484375 17.007812 C 59.503906 17.066406 59.523438 17.125 59.542969 17.1875 L 59.589844 17.367188 C 59.65625 17.609375 59.722656 17.851562 59.789062 18.09375 C 59.847656 18.335938 59.898438 18.582031 59.953125 18.824219 L 59.996094 19.003906 L 60.015625 19.09375 L 60.03125 19.1875 C 60.050781 19.308594 60.074219 19.429688 60.09375 19.550781 C 60.113281 19.671875 60.136719 19.792969 60.15625 19.914062 C 60.164062 19.972656 60.175781 20.035156 60.1875 20.09375 L 60.207031 20.277344 C 60.238281 20.515625 60.265625 20.757812 60.296875 20.996094 C 60.320312 21.238281 60.332031 21.476562 60.351562 21.714844 C 60.359375 21.835938 60.367188 21.953125 60.375 22.070312 C 60.378906 22.191406 60.378906 22.308594 60.382812 22.429688 C 60.386719 22.664062 60.394531 22.898438 60.394531 23.132812 C 60.386719 23.367188 60.382812 23.597656 60.375 23.828125 L 60.371094 24 C 60.367188 24.058594 60.367188 24.117188 60.359375 24.175781 C 60.351562 24.289062 60.34375 24.402344 60.332031 24.515625 C 60.324219 24.628906 60.316406 24.742188 60.308594 24.855469 L 60.292969 25.023438 C 60.289062 25.082031 60.285156 25.136719 60.277344 25.191406 C 60.246094 25.414062 60.21875 25.636719 60.1875 25.855469 C 60.171875 25.96875 60.164062 26.078125 60.144531 26.183594 C 60.125 26.292969 60.105469 26.402344 60.082031 26.511719 C 60.046875 26.722656 60.007812 26.9375 59.96875 27.148438 C 59.917969 27.359375 59.871094 27.566406 59.824219 27.773438 C 59.796875 27.878906 59.777344 27.980469 59.75 28.082031 C 59.722656 28.183594 59.691406 28.285156 59.664062 28.382812 C 59.609375 28.585938 59.558594 28.785156 59.496094 28.980469 C 59.433594 29.171875 59.367188 29.363281 59.308594 29.554688 C 59.25 29.746094 59.175781 29.933594 59.105469 30.117188 C 59.035156 30.300781 58.972656 30.480469 58.898438 30.660156 C 58.3125 32.082031 57.621094 33.3125 56.925781 34.339844 C 56.230469 35.367188 55.523438 36.191406 54.910156 36.835938 C 54.835938 36.914062 54.765625 36.996094 54.6875 37.070312 C 54.613281 37.144531 54.542969 37.214844 54.472656 37.285156 C 54.417969 37.332031 54.371094 37.382812 54.320312 37.433594 C 54.761719 37.738281 55.039062 37.988281 55.105469 38.054688 C 55.847656 38.671875 56.351562 39.371094 56.6875 40.097656 C 56.796875 39.980469 56.910156 39.855469 57.03125 39.722656 C 57.109375 39.636719 57.1875 39.550781 57.273438 39.457031 C 57.355469 39.367188 57.433594 39.269531 57.519531 39.167969 C 58.199219 38.375 58.972656 37.367188 59.722656 36.128906 C 60.472656 34.886719 61.199219 33.417969 61.789062 31.742188 C 61.863281 31.535156 61.925781 31.316406 61.996094 31.105469 C 62.066406 30.886719 62.136719 30.671875 62.191406 30.449219 C 62.253906 30.226562 62.3125 30 62.375 29.777344 C 62.433594 29.546875 62.480469 29.316406 62.535156 29.085938 C 62.558594 28.96875 62.585938 28.851562 62.613281 28.734375 C 62.636719 28.617188 62.65625 28.496094 62.679688 28.378906 C 62.71875 28.140625 62.761719 27.902344 62.804688 27.660156 C 62.835938 27.417969 62.867188 27.171875 62.898438 26.925781 C 62.917969 26.800781 62.933594 26.675781 62.949219 26.550781 C 62.964844 26.429688 62.96875 26.300781 62.980469 26.175781 C 63 25.925781 63.019531 25.671875 63.039062 25.417969 C 63.046875 25.351562 63.050781 25.289062 63.050781 25.226562 L 63.054688 25.03125 C 63.058594 24.902344 63.0625 24.773438 63.066406 24.644531 C 63.070312 24.515625 63.074219 24.386719 63.074219 24.257812 C 63.078125 24.191406 63.078125 24.125 63.074219 24.0625 "/></g><path style=" stroke:none;fill-rule:nonzero;fill:#51ade5;fill-opacity:1;" d="M 32.648438 44.503906 C 32.648438 44.503906 39.148438 45.308594 44.601562 40.945312 C 44.601562 40.945312 41.234375 46.003906 32.648438 44.503906 Z M 47.929688 37.183594 C 35.652344 48.1875 25.0625 41.3125 25.0625 41.3125 C 25.0625 41.3125 26.457031 48.453125 31.328125 48.453125 C 31.328125 48.453125 28.214844 49.195312 25.683594 46.765625 C 27.105469 52.628906 30.746094 56.425781 34.246094 58.816406 C 34.246094 58.816406 36.691406 58.75 37.679688 57.976562 C 37.679688 57.976562 36.773438 59.132812 35.75 59.765625 C 38.238281 61.21875 40.472656 61.976562 41.542969 62.292969 C 42.679688 61.699219 43.609375 60.902344 43.609375 60.902344 C 43.183594 61.820312 42.214844 62.472656 42.214844 62.472656 C 51.425781 59.933594 56.296875 45.859375 56.296875 45.859375 L 47.929688 37.183594 "/><path style=" stroke:none;fill-rule:nonzero;fill:#80cc28;fill-opacity:1;" d="M 56.222656 43.46875 C 56.222656 43.46875 56.222656 41.742188 55.046875 39.21875 C 55.046875 39.21875 56.644531 40.902344 56.222656 43.46875 Z M 54.777344 38.425781 C 54.777344 38.425781 51.765625 35.535156 48.402344 36.960938 L 56.464844 45.324219 C 56.820312 44.015625 57.414062 40.609375 54.777344 38.425781 "/><g transform="matrix(1,0,0,1,77,14)"><g clip-path="url(#fe6b67332c)"><g style="fill:#80cc28;fill-opacity:1;"><g transform="translate(0.092797, 42.610471)"><path style="stroke:none" d="M 5.9375 -12.703125 L 16.25 -22.5 C 16.5625 -22.863281 16.976562 -23.046875 17.5 -23.046875 C 18 -23.046875 18.414062 -22.890625 18.75 -22.578125 C 19.0625 -22.242188 19.21875 -21.828125 19.21875 -21.328125 C 19.21875 -20.890625 19.035156 -20.488281 18.671875 -20.125 L 9.5 -11.765625 L 18.671875 -3.015625 C 19.035156 -2.648438 19.21875 -2.242188 19.21875 -1.796875 C 19.21875 -1.304688 19.0625 -0.90625 18.75 -0.59375 C 18.414062 -0.25 18 -0.078125 17.5 -0.078125 C 16.976562 -0.078125 16.5625 -0.257812 16.25 -0.625 L 5.9375 -10.9375 L 5.9375 -1.71875 C 5.9375 -1.25 5.769531 -0.847656 5.4375 -0.515625 C 5.09375 -0.171875 4.6875 0 4.21875 0 C 3.75 0 3.359375 -0.171875 3.046875 -0.515625 C 2.710938 -0.847656 2.546875 -1.25 2.546875 -1.71875 L 2.546875 -21.328125 C 2.546875 -21.796875 2.710938 -22.203125 3.046875 -22.546875 C 3.359375 -22.878906 3.75 -23.046875 4.21875 -23.046875 C 4.6875 -23.046875 5.09375 -22.878906 5.4375 -22.546875 C 5.769531 -22.203125 5.9375 -21.796875 5.9375 -21.328125 Z M 5.9375 -12.703125 "/></g></g><g style="fill:#80cc28;fill-opacity:1;"><g transform="translate(17.595799, 42.610471)"><path style="stroke:none" d="M 13.015625 0.234375 C 12.078125 0.234375 11.148438 0.128906 10.234375 -0.078125 C 9.296875 -0.265625 8.320312 -0.644531 7.3125 -1.21875 C 6.289062 -1.757812 5.40625 -2.472656 4.65625 -3.359375 C 3.875 -4.222656 3.234375 -5.394531 2.734375 -6.875 C 2.210938 -8.363281 1.953125 -10.054688 1.953125 -11.953125 C 1.953125 -13.960938 2.289062 -15.722656 2.96875 -17.234375 C 3.625 -18.742188 4.507812 -19.925781 5.625 -20.78125 C 6.71875 -21.613281 7.890625 -22.238281 9.140625 -22.65625 C 10.390625 -23.050781 11.679688 -23.25 13.015625 -23.25 C 14.335938 -23.25 15.625 -23.050781 16.875 -22.65625 C 18.125 -22.238281 19.3125 -21.613281 20.4375 -20.78125 C 21.53125 -19.925781 22.414062 -18.742188 23.09375 -17.234375 C 23.738281 -15.722656 24.0625 -13.960938 24.0625 -11.953125 C 24.0625 -10.054688 23.816406 -8.363281 23.328125 -6.875 C 22.804688 -5.394531 22.164062 -4.222656 21.40625 -3.359375 C 20.625 -2.472656 19.726562 -1.757812 18.71875 -1.21875 C 17.695312 -0.644531 16.734375 -0.265625 15.828125 -0.078125 C 14.890625 0.128906 13.953125 0.234375 13.015625 0.234375 Z M 13.015625 -2.96875 C 18.117188 -2.96875 20.671875 -5.925781 20.671875 -11.84375 C 20.671875 -17.3125 18.117188 -20.046875 13.015625 -20.046875 C 7.910156 -20.046875 5.359375 -17.3125 5.359375 -11.84375 C 5.359375 -5.925781 7.910156 -2.96875 13.015625 -2.96875 Z M 13.015625 -2.96875 "/></g></g><g style="fill:#80cc28;fill-opacity:1;"><g transform="translate(40.724771, 42.610471)"><path style="stroke:none" d="M 11.140625 -23.046875 C 11.785156 -23.046875 12.367188 -22.878906 12.890625 -22.546875 C 13.410156 -22.203125 13.773438 -21.742188 13.984375 -21.171875 L 21.015625 -2.34375 C 21.097656 -2.132812 21.140625 -1.914062 21.140625 -1.6875 C 21.140625 -1.1875 20.984375 -0.78125 20.671875 -0.46875 C 20.359375 -0.15625 19.953125 0 19.453125 0 C 18.617188 0 18.070312 -0.351562 17.8125 -1.0625 L 16.21875 -5.4375 L 6.09375 -5.4375 L 4.5 -1.0625 C 4.238281 -0.351562 3.691406 0 2.859375 0 C 2.359375 0 1.953125 -0.15625 1.640625 -0.46875 C 1.328125 -0.78125 1.171875 -1.1875 1.171875 -1.6875 C 1.171875 -1.914062 1.210938 -2.132812 1.296875 -2.34375 L 8.328125 -21.171875 C 8.535156 -21.742188 8.898438 -22.203125 9.421875 -22.546875 C 9.910156 -22.878906 10.484375 -23.046875 11.140625 -23.046875 Z M 7.3125 -8.640625 L 15 -8.640625 L 11.140625 -19.0625 Z M 7.3125 -8.640625 "/></g></g></g></g><g transform="matrix(1,0,0,1,76,56)"><g clip-path="url(#eccd770586)"><g style="fill:#222222;fill-opacity:1;"><g transform="translate(1.092797, 9.543237)"><path style="stroke:none" d="M 2.652344 0.234375 C 2.222656 0.234375 1.839844 0.179688 1.5 0.0742188 C 1.160156 -0.0351562 0.875 -0.175781 0.648438 -0.355469 C 0.417969 -0.53125 0.238281 -0.730469 0.113281 -0.945312 L 0.0625 -1.035156 L 0.824219 -1.960938 L 1.074219 -1.960938 L 1.117188 -1.894531 C 1.285156 -1.648438 1.496094 -1.449219 1.753906 -1.300781 C 2.007812 -1.15625 2.308594 -1.085938 2.652344 -1.085938 C 2.933594 -1.085938 3.140625 -1.140625 3.277344 -1.25 C 3.402344 -1.355469 3.464844 -1.503906 3.464844 -1.691406 C 3.464844 -1.808594 3.445312 -1.902344 3.40625 -1.976562 C 3.367188 -2.046875 3.300781 -2.109375 3.203125 -2.164062 C 3.09375 -2.226562 2.945312 -2.28125 2.753906 -2.328125 L 1.984375 -2.503906 C 1.417969 -2.632812 0.992188 -2.851562 0.710938 -3.15625 C 0.417969 -3.472656 0.273438 -3.875 0.273438 -4.367188 C 0.273438 -4.738281 0.367188 -5.0625 0.554688 -5.34375 C 0.738281 -5.625 1.003906 -5.839844 1.355469 -5.992188 C 1.699219 -6.144531 2.105469 -6.21875 2.574219 -6.21875 C 3.054688 -6.21875 3.464844 -6.15625 3.8125 -6.027344 C 4.164062 -5.898438 4.460938 -5.699219 4.703125 -5.429688 L 4.78125 -5.339844 L 4.082031 -4.382812 L 3.84375 -4.382812 L 3.800781 -4.425781 C 3.644531 -4.589844 3.46875 -4.710938 3.269531 -4.792969 C 3.070312 -4.875 2.835938 -4.914062 2.574219 -4.914062 C 2.28125 -4.914062 2.0625 -4.867188 1.917969 -4.769531 C 1.851562 -4.722656 1.804688 -4.671875 1.773438 -4.617188 C 1.742188 -4.558594 1.726562 -4.492188 1.726562 -4.414062 C 1.726562 -4.269531 1.769531 -4.152344 1.859375 -4.070312 C 1.957031 -3.976562 2.140625 -3.902344 2.40625 -3.84375 L 3.191406 -3.679688 C 3.804688 -3.550781 4.253906 -3.328125 4.535156 -3.011719 C 4.824219 -2.691406 4.964844 -2.273438 4.964844 -1.765625 C 4.964844 -1.363281 4.878906 -1.015625 4.703125 -0.714844 C 4.527344 -0.410156 4.265625 -0.175781 3.910156 -0.0117188 C 3.566406 0.152344 3.148438 0.234375 2.652344 0.234375 Z M 2.652344 -0.0625 C 3.105469 -0.0625 3.480469 -0.132812 3.785156 -0.277344 C 4.082031 -0.414062 4.304688 -0.609375 4.449219 -0.863281 C 4.597656 -1.117188 4.671875 -1.417969 4.671875 -1.765625 C 4.671875 -2.199219 4.554688 -2.550781 4.316406 -2.816406 C 4.078125 -3.085938 3.679688 -3.277344 3.132812 -3.394531 L 2.34375 -3.558594 C 2.023438 -3.625 1.796875 -3.726562 1.65625 -3.855469 C 1.507812 -3.996094 1.433594 -4.183594 1.433594 -4.414062 C 1.433594 -4.539062 1.460938 -4.652344 1.515625 -4.753906 C 1.566406 -4.855469 1.648438 -4.941406 1.753906 -5.011719 C 1.945312 -5.140625 2.222656 -5.207031 2.574219 -5.207031 C 2.875 -5.207031 3.144531 -5.160156 3.378906 -5.0625 C 3.617188 -4.96875 3.828125 -4.824219 4.011719 -4.628906 L 3.90625 -4.527344 L 3.90625 -4.675781 L 4.007812 -4.675781 L 4.007812 -4.527344 L 3.890625 -4.617188 L 4.476562 -5.417969 L 4.59375 -5.332031 L 4.484375 -5.234375 C 4.273438 -5.464844 4.015625 -5.640625 3.710938 -5.753906 C 3.398438 -5.867188 3.019531 -5.925781 2.574219 -5.925781 C 2.144531 -5.925781 1.777344 -5.859375 1.472656 -5.726562 C 1.175781 -5.59375 0.953125 -5.414062 0.796875 -5.179688 C 0.644531 -4.949219 0.570312 -4.679688 0.570312 -4.367188 C 0.570312 -3.953125 0.6875 -3.613281 0.925781 -3.355469 C 1.167969 -3.09375 1.542969 -2.90625 2.050781 -2.789062 L 2.824219 -2.613281 C 3.039062 -2.558594 3.214844 -2.496094 3.347656 -2.421875 C 3.492188 -2.339844 3.597656 -2.238281 3.664062 -2.117188 C 3.726562 -2 3.757812 -1.859375 3.757812 -1.691406 C 3.757812 -1.410156 3.660156 -1.1875 3.464844 -1.027344 C 3.277344 -0.867188 3.003906 -0.789062 2.652344 -0.789062 C 2.257812 -0.789062 1.90625 -0.875 1.609375 -1.046875 C 1.3125 -1.21875 1.066406 -1.445312 0.875 -1.730469 L 0.996094 -1.8125 L 0.996094 -1.667969 L 0.894531 -1.667969 L 0.894531 -1.8125 L 1.007812 -1.722656 L 0.355469 -0.925781 L 0.242188 -1.019531 L 0.367188 -1.09375 C 0.472656 -0.910156 0.625 -0.742188 0.828125 -0.585938 C 1.027344 -0.429688 1.28125 -0.304688 1.589844 -0.207031 C 1.898438 -0.109375 2.253906 -0.0625 2.652344 -0.0625 Z M 2.652344 -0.0625 "/></g></g><g style="fill:#222222;fill-opacity:1;"><g transform="translate(10.386939, 9.543237)"><path style="stroke:none" d="M 2.109375 -2.628906 L 2.109375 -0.992188 L 1.960938 -0.992188 L 1.960938 -1.136719 L 4.964844 -1.136719 L 4.964844 0.148438 L 0.632812 0.148438 L 0.632812 -6.132812 L 4.902344 -6.132812 L 4.902344 -4.847656 L 1.960938 -4.847656 L 1.960938 -4.996094 L 2.109375 -4.996094 L 2.109375 -3.59375 L 1.960938 -3.59375 L 1.960938 -3.742188 L 4.546875 -3.742188 L 4.546875 -2.480469 L 1.960938 -2.480469 L 1.960938 -2.628906 Z M 1.816406 -2.777344 L 4.402344 -2.777344 L 4.402344 -2.628906 L 4.253906 -2.628906 L 4.253906 -3.59375 L 4.402344 -3.59375 L 4.402344 -3.449219 L 1.816406 -3.449219 L 1.816406 -5.140625 L 4.753906 -5.140625 L 4.753906 -4.996094 L 4.605469 -4.996094 L 4.605469 -5.988281 L 4.753906 -5.988281 L 4.753906 -5.839844 L 0.777344 -5.839844 L 0.777344 -5.988281 L 0.925781 -5.988281 L 0.925781 0 L 0.777344 0 L 0.777344 -0.148438 L 4.820312 -0.148438 L 4.820312 0 L 4.671875 0 L 4.671875 -0.992188 L 4.820312 -0.992188 L 4.820312 -0.84375 L 1.816406 -0.84375 Z M 1.816406 -2.777344 "/></g></g><g style="fill:#222222;fill-opacity:1;"><g transform="translate(19.685176, 9.543237)"><path style="stroke:none" d="M 0.632812 0 L 0.632812 -6.132812 L 3.179688 -6.132812 C 3.839844 -6.132812 4.339844 -5.976562 4.683594 -5.667969 C 5.03125 -5.351562 5.203125 -4.921875 5.203125 -4.378906 C 5.203125 -3.980469 5.101562 -3.652344 4.894531 -3.394531 C 4.691406 -3.136719 4.394531 -2.945312 4.003906 -2.8125 L 3.957031 -2.953125 L 4.101562 -2.953125 L 4.101562 -2.867188 L 3.957031 -2.867188 L 4.015625 -3 C 4.226562 -2.910156 4.398438 -2.769531 4.53125 -2.585938 C 4.65625 -2.414062 4.773438 -2.160156 4.882812 -1.832031 L 5.542969 0.148438 L 4.015625 0.148438 L 3.398438 -1.742188 C 3.34375 -1.910156 3.285156 -2.035156 3.21875 -2.121094 C 3.160156 -2.199219 3.085938 -2.253906 2.996094 -2.289062 C 2.898438 -2.328125 2.761719 -2.347656 2.597656 -2.347656 L 1.960938 -2.347656 L 1.960938 -2.492188 L 2.109375 -2.492188 L 2.109375 0.148438 L 0.632812 0.148438 Z M 0.925781 0 L 0.777344 0 L 0.777344 -0.148438 L 1.960938 -0.148438 L 1.960938 0 L 1.816406 0 L 1.816406 -2.640625 L 2.597656 -2.640625 C 2.800781 -2.640625 2.96875 -2.613281 3.101562 -2.5625 C 3.242188 -2.507812 3.359375 -2.417969 3.453125 -2.296875 C 3.535156 -2.183594 3.613281 -2.03125 3.675781 -1.835938 L 4.261719 -0.046875 L 4.125 0 L 4.125 -0.148438 L 5.339844 -0.148438 L 5.339844 0 L 5.199219 0.046875 L 4.601562 -1.738281 C 4.503906 -2.042969 4.398438 -2.265625 4.292969 -2.417969 C 4.191406 -2.554688 4.0625 -2.660156 3.898438 -2.730469 L 3.808594 -2.769531 L 3.808594 -3.058594 L 3.910156 -3.089844 C 4.246094 -3.203125 4.5 -3.367188 4.664062 -3.574219 C 4.828125 -3.78125 4.910156 -4.046875 4.910156 -4.378906 C 4.910156 -4.835938 4.769531 -5.195312 4.484375 -5.449219 C 4.199219 -5.710938 3.761719 -5.839844 3.179688 -5.839844 L 0.777344 -5.839844 L 0.777344 -5.988281 L 0.925781 -5.988281 Z M 3.039062 -3.578125 C 3.285156 -3.578125 3.46875 -3.632812 3.582031 -3.738281 C 3.695312 -3.84375 3.75 -4.007812 3.75 -4.234375 C 3.75 -4.464844 3.695312 -4.632812 3.582031 -4.738281 C 3.46875 -4.847656 3.285156 -4.902344 3.039062 -4.902344 L 1.960938 -4.902344 L 1.960938 -5.050781 L 2.109375 -5.050781 L 2.109375 -3.429688 L 1.960938 -3.429688 L 1.960938 -3.578125 Z M 3.039062 -3.285156 L 1.816406 -3.285156 L 1.816406 -5.195312 L 3.039062 -5.195312 C 3.363281 -5.195312 3.613281 -5.113281 3.785156 -4.953125 C 3.957031 -4.785156 4.046875 -4.546875 4.046875 -4.234375 C 4.046875 -3.925781 3.957031 -3.6875 3.785156 -3.523438 C 3.613281 -3.363281 3.363281 -3.285156 3.039062 -3.285156 Z M 3.039062 -3.285156 "/></g></g><g style="fill:#222222;fill-opacity:1;"><g transform="translate(29.433838, 9.543237)"><path style="stroke:none" d="M 3.558594 0.148438 L 2.023438 0.148438 L -0.0976562 -6.132812 L 1.46875 -6.132812 L 2.957031 -1.570312 L 2.816406 -1.523438 L 2.816406 -1.671875 L 2.917969 -1.671875 L 2.917969 -1.523438 L 2.78125 -1.566406 L 4.246094 -6.132812 L 5.78125 -6.132812 L 3.664062 0.148438 Z M 3.558594 -0.148438 L 3.558594 0 L 3.417969 -0.046875 L 5.4375 -6.035156 L 5.578125 -5.988281 L 5.578125 -5.839844 L 4.351562 -5.839844 L 4.351562 -5.988281 L 4.492188 -5.941406 L 3.027344 -1.375 L 2.710938 -1.375 L 1.222656 -5.941406 L 1.363281 -5.988281 L 1.363281 -5.839844 L 0.105469 -5.839844 L 0.105469 -5.988281 L 0.246094 -6.035156 L 2.269531 -0.046875 L 2.128906 0 L 2.128906 -0.148438 Z M 3.558594 -0.148438 "/></g></g><g style="fill:#222222;fill-opacity:1;"><g transform="translate(39.26849, 9.543237)"><path style="stroke:none" d="M 0.632812 -6.132812 L 2.109375 -6.132812 L 2.109375 0.148438 L 0.632812 0.148438 Z M 0.925781 -5.839844 L 0.925781 -0.148438 L 1.816406 -0.148438 L 1.816406 -5.839844 Z M 0.925781 -5.839844 "/></g></g><g style="fill:#222222;fill-opacity:1;"><g transform="translate(46.163095, 9.543237)"><path style="stroke:none" d="M 3.273438 0.234375 C 2.695312 0.234375 2.1875 0.113281 1.742188 -0.128906 C 1.296875 -0.371094 0.949219 -0.738281 0.695312 -1.222656 C 0.449219 -1.707031 0.324219 -2.296875 0.324219 -2.992188 C 0.324219 -3.691406 0.449219 -4.28125 0.695312 -4.761719 C 0.949219 -5.25 1.296875 -5.613281 1.742188 -5.859375 C 2.1875 -6.097656 2.695312 -6.21875 3.273438 -6.21875 C 3.875 -6.21875 4.386719 -6.101562 4.8125 -5.863281 C 5.246094 -5.621094 5.554688 -5.25 5.738281 -4.757812 L 5.78125 -4.644531 L 4.777344 -4.027344 L 4.535156 -4.039062 L 4.5 -4.125 C 4.382812 -4.40625 4.230469 -4.605469 4.035156 -4.726562 C 3.839844 -4.847656 3.585938 -4.90625 3.273438 -4.90625 C 2.820312 -4.90625 2.46875 -4.757812 2.222656 -4.464844 C 1.964844 -4.164062 1.839844 -3.671875 1.839844 -2.992188 C 1.839844 -2.316406 1.964844 -1.828125 2.222656 -1.527344 C 2.46875 -1.230469 2.820312 -1.085938 3.273438 -1.085938 C 3.625 -1.085938 3.910156 -1.167969 4.121094 -1.335938 C 4.332031 -1.503906 4.476562 -1.761719 4.558594 -2.105469 L 4.585938 -2.21875 L 4.839844 -2.21875 L 5.851562 -1.691406 L 5.816406 -1.578125 C 5.644531 -0.976562 5.34375 -0.523438 4.921875 -0.21875 C 4.5 0.0820312 3.949219 0.234375 3.273438 0.234375 Z M 3.273438 -0.0625 C 3.886719 -0.0625 4.378906 -0.195312 4.75 -0.460938 C 5.117188 -0.722656 5.378906 -1.121094 5.535156 -1.65625 L 5.675781 -1.617188 L 5.609375 -1.488281 L 4.734375 -1.941406 L 4.804688 -2.070312 L 4.804688 -1.925781 L 4.699219 -1.925781 L 4.699219 -2.070312 L 4.84375 -2.039062 C 4.75 -1.628906 4.570312 -1.316406 4.304688 -1.105469 C 4.039062 -0.894531 3.695312 -0.789062 3.273438 -0.789062 C 2.730469 -0.789062 2.304688 -0.972656 1.996094 -1.335938 C 1.695312 -1.691406 1.542969 -2.246094 1.542969 -2.992188 C 1.542969 -3.746094 1.695312 -4.296875 1.996094 -4.65625 C 2.304688 -5.019531 2.730469 -5.199219 3.273438 -5.199219 C 3.640625 -5.199219 3.945312 -5.125 4.191406 -4.976562 C 4.4375 -4.824219 4.628906 -4.578125 4.769531 -4.238281 L 4.636719 -4.179688 L 4.640625 -4.328125 L 4.742188 -4.324219 L 4.738281 -4.175781 L 4.660156 -4.300781 L 5.523438 -4.832031 L 5.601562 -4.703125 L 5.464844 -4.652344 C 5.304688 -5.082031 5.039062 -5.398438 4.667969 -5.605469 C 4.289062 -5.820312 3.820312 -5.925781 3.273438 -5.925781 C 2.746094 -5.925781 2.28125 -5.816406 1.882812 -5.601562 C 1.488281 -5.386719 1.179688 -5.0625 0.957031 -4.628906 C 0.730469 -4.1875 0.617188 -3.644531 0.617188 -2.992188 C 0.617188 -2.34375 0.730469 -1.796875 0.957031 -1.359375 C 1.179688 -0.925781 1.488281 -0.601562 1.882812 -0.386719 C 2.28125 -0.167969 2.746094 -0.0625 3.273438 -0.0625 Z M 3.273438 -0.0625 "/></g></g><g style="fill:#222222;fill-opacity:1;"><g transform="translate(56.186106, 9.543237)"><path style="stroke:none" d="M 2.109375 -2.628906 L 2.109375 -0.992188 L 1.960938 -0.992188 L 1.960938 -1.136719 L 4.964844 -1.136719 L 4.964844 0.148438 L 0.632812 0.148438 L 0.632812 -6.132812 L 4.902344 -6.132812 L 4.902344 -4.847656 L 1.960938 -4.847656 L 1.960938 -4.996094 L 2.109375 -4.996094 L 2.109375 -3.59375 L 1.960938 -3.59375 L 1.960938 -3.742188 L 4.546875 -3.742188 L 4.546875 -2.480469 L 1.960938 -2.480469 L 1.960938 -2.628906 Z M 1.816406 -2.777344 L 4.402344 -2.777344 L 4.402344 -2.628906 L 4.253906 -2.628906 L 4.253906 -3.59375 L 4.402344 -3.59375 L 4.402344 -3.449219 L 1.816406 -3.449219 L 1.816406 -5.140625 L 4.753906 -5.140625 L 4.753906 -4.996094 L 4.605469 -4.996094 L 4.605469 -5.988281 L 4.753906 -5.988281 L 4.753906 -5.839844 L 0.777344 -5.839844 L 0.777344 -5.988281 L 0.925781 -5.988281 L 0.925781 0 L 0.777344 0 L 0.777344 -0.148438 L 4.820312 -0.148438 L 4.820312 0 L 4.671875 0 L 4.671875 -0.992188 L 4.820312 -0.992188 L 4.820312 -0.84375 L 1.816406 -0.84375 Z M 1.816406 -2.777344 "/></g></g><g style="fill:#ffffff;fill-opacity:1;"><g transform="translate(1.092797, 9.543237)"><path style="stroke:none" d="M 2.65625 0.09375 C 2.238281 0.09375 1.867188 0.0390625 1.546875 -0.0625 C 1.222656 -0.164062 0.953125 -0.300781 0.734375 -0.46875 C 0.515625 -0.632812 0.347656 -0.816406 0.234375 -1.015625 L 0.890625 -1.8125 L 1 -1.8125 C 1.175781 -1.539062 1.398438 -1.328125 1.671875 -1.171875 C 1.953125 -1.015625 2.28125 -0.9375 2.65625 -0.9375 C 2.96875 -0.9375 3.203125 -1.003906 3.359375 -1.140625 C 3.523438 -1.273438 3.609375 -1.457031 3.609375 -1.6875 C 3.609375 -1.832031 3.582031 -1.953125 3.53125 -2.046875 C 3.476562 -2.140625 3.390625 -2.21875 3.265625 -2.28125 C 3.148438 -2.351562 2.992188 -2.414062 2.796875 -2.46875 L 2.015625 -2.640625 C 1.484375 -2.765625 1.082031 -2.96875 0.8125 -3.25 C 0.550781 -3.539062 0.421875 -3.914062 0.421875 -4.375 C 0.421875 -4.707031 0.503906 -5.003906 0.671875 -5.265625 C 0.847656 -5.523438 1.097656 -5.722656 1.421875 -5.859375 C 1.742188 -6.003906 2.128906 -6.078125 2.578125 -6.078125 C 3.035156 -6.078125 3.425781 -6.015625 3.75 -5.890625 C 4.082031 -5.773438 4.363281 -5.585938 4.59375 -5.328125 L 4.015625 -4.53125 L 3.90625 -4.53125 C 3.738281 -4.707031 3.546875 -4.835938 3.328125 -4.921875 C 3.109375 -5.015625 2.859375 -5.0625 2.578125 -5.0625 C 2.253906 -5.0625 2.003906 -5.003906 1.828125 -4.890625 C 1.660156 -4.773438 1.578125 -4.617188 1.578125 -4.421875 C 1.578125 -4.234375 1.632812 -4.082031 1.75 -3.96875 C 1.875 -3.851562 2.082031 -3.765625 2.375 -3.703125 L 3.15625 -3.546875 C 3.738281 -3.421875 4.160156 -3.207031 4.421875 -2.90625 C 4.691406 -2.613281 4.828125 -2.234375 4.828125 -1.765625 C 4.828125 -1.390625 4.742188 -1.0625 4.578125 -0.78125 C 4.421875 -0.507812 4.175781 -0.296875 3.84375 -0.140625 C 3.519531 0.015625 3.125 0.09375 2.65625 0.09375 Z M 2.65625 0.09375 "/></g></g><g style="fill:#ffffff;fill-opacity:1;"><g transform="translate(10.386939, 9.543237)"><path style="stroke:none" d="M 1.96875 -2.625 L 1.96875 -0.984375 L 4.828125 -0.984375 L 4.828125 0 L 0.78125 0 L 0.78125 -5.984375 L 4.75 -5.984375 L 4.75 -5 L 1.96875 -5 L 1.96875 -3.59375 L 4.40625 -3.59375 L 4.40625 -2.625 Z M 1.96875 -2.625 "/></g></g><g style="fill:#ffffff;fill-opacity:1;"><g transform="translate(19.685176, 9.543237)"><path style="stroke:none" d="M 0.78125 0 L 0.78125 -5.984375 L 3.1875 -5.984375 C 3.800781 -5.984375 4.265625 -5.84375 4.578125 -5.5625 C 4.898438 -5.28125 5.0625 -4.882812 5.0625 -4.375 C 5.0625 -4.007812 4.96875 -3.710938 4.78125 -3.484375 C 4.59375 -3.253906 4.316406 -3.078125 3.953125 -2.953125 L 3.953125 -2.875 C 4.140625 -2.789062 4.289062 -2.664062 4.40625 -2.5 C 4.53125 -2.34375 4.644531 -2.101562 4.75 -1.78125 L 5.34375 0 L 4.125 0 L 3.546875 -1.796875 C 3.484375 -1.972656 3.410156 -2.109375 3.328125 -2.203125 C 3.253906 -2.304688 3.160156 -2.378906 3.046875 -2.421875 C 2.929688 -2.472656 2.78125 -2.5 2.59375 -2.5 L 1.96875 -2.5 L 1.96875 0 Z M 3.046875 -3.4375 C 3.617188 -3.4375 3.90625 -3.703125 3.90625 -4.234375 C 3.90625 -4.773438 3.617188 -5.046875 3.046875 -5.046875 L 1.96875 -5.046875 L 1.96875 -3.4375 Z M 3.046875 -3.4375 "/></g></g><g style="fill:#ffffff;fill-opacity:1;"><g transform="translate(29.433838, 9.543237)"><path style="stroke:none" d="M 3.5625 0 L 2.125 0 L 0.109375 -5.984375 L 1.359375 -5.984375 L 2.8125 -1.53125 L 2.921875 -1.53125 L 4.359375 -5.984375 L 5.578125 -5.984375 Z M 3.5625 0 "/></g></g><g style="fill:#ffffff;fill-opacity:1;"><g transform="translate(39.26849, 9.543237)"><path style="stroke:none" d="M 1.96875 0 L 0.78125 0 L 0.78125 -5.984375 L 1.96875 -5.984375 Z M 1.96875 0 "/></g></g><g style="fill:#ffffff;fill-opacity:1;"><g transform="translate(46.163095, 9.543237)"><path style="stroke:none" d="M 3.28125 0.09375 C 2.726562 0.09375 2.238281 -0.0195312 1.8125 -0.25 C 1.394531 -0.488281 1.066406 -0.835938 0.828125 -1.296875 C 0.585938 -1.753906 0.46875 -2.320312 0.46875 -3 C 0.46875 -3.664062 0.585938 -4.226562 0.828125 -4.6875 C 1.066406 -5.15625 1.394531 -5.503906 1.8125 -5.734375 C 2.238281 -5.960938 2.726562 -6.078125 3.28125 -6.078125 C 3.851562 -6.078125 4.335938 -5.960938 4.734375 -5.734375 C 5.140625 -5.515625 5.429688 -5.171875 5.609375 -4.703125 L 4.734375 -4.171875 L 4.640625 -4.1875 C 4.503906 -4.5 4.328125 -4.722656 4.109375 -4.859375 C 3.890625 -4.992188 3.613281 -5.0625 3.28125 -5.0625 C 2.78125 -5.0625 2.390625 -4.894531 2.109375 -4.5625 C 1.828125 -4.226562 1.6875 -3.707031 1.6875 -3 C 1.6875 -2.28125 1.828125 -1.753906 2.109375 -1.421875 C 2.390625 -1.097656 2.78125 -0.9375 3.28125 -0.9375 C 4.050781 -0.9375 4.523438 -1.316406 4.703125 -2.078125 L 4.8125 -2.078125 L 5.671875 -1.625 C 5.515625 -1.050781 5.238281 -0.617188 4.84375 -0.328125 C 4.445312 -0.046875 3.925781 0.09375 3.28125 0.09375 Z M 3.28125 0.09375 "/></g></g><g style="fill:#ffffff;fill-opacity:1;"><g transform="translate(56.186106, 9.543237)"><path style="stroke:none" d="M 1.96875 -2.625 L 1.96875 -0.984375 L 4.828125 -0.984375 L 4.828125 0 L 0.78125 0 L 0.78125 -5.984375 L 4.75 -5.984375 L 4.75 -5 L 1.96875 -5 L 1.96875 -3.59375 L 4.40625 -3.59375 L 4.40625 -2.625 Z M 1.96875 -2.625 "/></g></g></g></g></g></svg>